<svg width="24" height="24" viewBox="0 0 24 24" fill="none" xmlns="http://www.w3.org/2000/svg">
<path d="M12 3.75C7.44375 3.75 3.75 7.44375 3.75 12C3.75 13.5244 4.16522 14.9511 4.88672 16.1763L3.83057 20.1313L7.979 19.2034C9.16888 19.869 10.5398 20.25 12 20.25C16.5562 20.25 20.25 16.5562 20.25 12C20.25 7.44375 16.5562 3.75 12 3.75ZM12 5.25C15.7279 5.25 18.75 8.27213 18.75 12C18.75 15.7279 15.7279 18.75 12 18.75C10.6009 18.75 9.30138 18.3243 8.22363 17.5957L5.92163 18.1106L6.50757 15.9148C5.71894 14.81 5.25 13.461 5.25 12C5.25 8.27213 8.27213 5.25 12 5.25ZM9.17725 8.15112C9.03962 8.15112 8.81838 8.20199 8.63013 8.40674C8.44525 8.61186 7.91748 9.10457 7.91748 10.1118C7.91748 11.1153 8.6464 12.0888 8.74878 12.2227C8.85115 12.3603 10.1627 14.4897 12.2417 15.3083C13.9652 15.9871 14.3173 15.8526 14.6946 15.8174C15.0688 15.7851 15.9031 15.325 16.073 14.8484C16.2425 14.3714 16.2423 13.9623 16.1895 13.8765C16.1381 13.7932 16.0038 13.7415 15.7991 13.6392C15.5943 13.5364 14.5899 13.0416 14.4016 12.9741C14.216 12.9066 14.0785 12.8712 13.9446 13.0759C13.807 13.2807 13.4168 13.7415 13.2949 13.8757C13.1768 14.0134 13.0588 14.0294 12.854 13.927C12.6493 13.8246 11.9908 13.6097 11.2104 12.9126C10.6033 12.3722 10.1933 11.703 10.0752 11.499C9.9567 11.2946 10.0622 11.1832 10.1646 11.0808C10.2576 10.9916 10.3698 10.8437 10.4722 10.7256C10.5712 10.6041 10.6061 10.5212 10.6736 10.3835C10.7445 10.2497 10.7085 10.1278 10.6575 10.0254C10.6068 9.92264 10.2098 8.91203 10.0276 8.50928C9.87459 8.17028 9.71463 8.16036 9.56763 8.15698C9.44875 8.15098 9.31112 8.15112 9.17725 8.15112Z" fill="#B3B3B3"/>
</svg>
